<svg width="63" height="431" viewBox="0 0 63 431" fill="none" xmlns="http://www.w3.org/2000/svg"
    xmlns:xlink="http://www.w3.org/1999/xlink">
    <path fill='#fff7'
        d="M45.75 415.681C45.75 419.314 44.9833 422.364 43.45 424.831C41.9167 427.264 39.7833 428.981 37.05 429.981L32.6 422.331C35.7 421.031 37.25 418.731 37.25 415.431C37.25 412.698 36.4667 411.331 34.9 411.331C33.9 411.331 33.0667 412.114 32.4 413.681C32.2 414.214 31.75 415.681 31.05 418.081C30.0833 421.481 28.7333 424.064 27 425.831C25.2667 427.598 22.9667 428.481 20.1 428.481C16.8667 428.481 14.25 427.331 12.25 425.031C10.25 422.664 9.25 419.764 9.25 416.331C9.25 413.398 9.95 410.798 11.35 408.531C12.7167 406.264 14.6833 404.531 17.25 403.331L21.65 410.831C19.05 411.931 17.75 413.748 17.75 416.281C17.75 417.314 17.9667 418.114 18.4 418.681C18.8 419.248 19.35 419.531 20.05 419.531C20.8167 419.531 21.4667 419.131 22 418.331C22.5333 417.498 23.15 415.898 23.85 413.531C24.3833 411.764 24.85 410.398 25.25 409.431C25.7167 408.331 26.35 407.198 27.15 406.031C28.75 403.598 31.3 402.381 34.8 402.381C38.2333 402.381 40.9167 403.598 42.85 406.031C44.7833 408.464 45.75 411.681 45.75 415.681ZM20 384.465H27.95V389.665H35.2C36.2667 389.665 36.95 389.299 37.25 388.565C37.5167 387.799 37.6 386.432 37.5 384.465H45C45.6 389.399 45.15 392.899 43.65 394.965C42.0833 396.965 39.3333 397.965 35.4 397.965H27.95V401.715H20V397.965H15.5L13 389.665H20V384.465ZM35.55 356.419L35.55 373.669C37.5833 372.835 38.6 370.969 38.6 368.069C38.6 366.302 38.0167 364.785 36.85 363.519L41.05 357.519C44.15 359.952 45.7 363.535 45.7 368.269C45.7 372.502 44.4667 375.902 42 378.469C39.5 381.002 36.35 382.269 32.55 382.269C28.7833 382.269 25.6333 381.019 23.1 378.519C20.5667 376.019 19.3 372.835 19.3 368.969C19.3 365.235 20.55 362.152 23.05 359.719C25.5167 357.285 28.65 356.069 32.45 356.069C33.6167 356.069 34.65 356.185 35.55 356.419ZM29.8 373.769V364.169C27.4667 364.802 26.3 366.369 26.3 368.869C26.3 371.435 27.4667 373.069 29.8 373.769ZM19.3 337.104C19.3 333.771 20.5667 330.988 23.1 328.754C25.6333 326.488 28.7667 325.354 32.5 325.354C36.2333 325.354 39.3833 326.488 41.95 328.754C44.45 331.021 45.7 333.804 45.7 337.104C45.7 340.138 44.7 342.504 42.7 344.204H55V352.504H20V344.204H22.3C20.3 342.504 19.3 340.138 19.3 337.104ZM36.45 342.754C37.45 341.788 37.95 340.521 37.95 338.954C37.95 337.388 37.45 336.121 36.45 335.154C35.4167 334.188 34.1 333.704 32.5 333.704C30.9 333.704 29.5833 334.188 28.55 335.154C27.55 336.121 27.05 337.388 27.05 338.954C27.05 340.521 27.55 341.788 28.55 342.754C29.5833 343.721 30.9 344.204 32.5 344.204C34.1 344.204 35.4167 343.721 36.45 342.754ZM19.3 306.493C19.3 303.726 20.25 301.509 22.15 299.843C24.0167 298.143 26.65 297.293 30.05 297.293H45V305.593H31.1C29.8333 305.593 28.8667 305.926 28.2 306.593C27.5 307.259 27.15 308.176 27.15 309.343C27.15 310.643 27.55 311.659 28.35 312.393C29.1167 313.093 30.2333 313.443 31.7 313.443H45V321.743H10V313.443H22.5C20.3667 311.943 19.3 309.626 19.3 306.493ZM22.3 275.186H20V266.886H45V275.186H42.7C44.7 276.886 45.7 279.253 45.7 282.286C45.7 285.653 44.45 288.453 41.95 290.686C39.4167 292.92 36.2667 294.036 32.5 294.036C28.7 294.036 25.5667 292.92 23.1 290.686C20.5667 288.453 19.3 285.653 19.3 282.286C19.3 279.253 20.3 276.886 22.3 275.186ZM36.45 284.236C37.45 283.303 37.95 282.036 37.95 280.436C37.95 278.836 37.45 277.57 36.45 276.636C35.4167 275.67 34.1 275.186 32.5 275.186C30.9 275.186 29.5833 275.67 28.55 276.636C27.55 277.57 27.05 278.836 27.05 280.436C27.05 282.036 27.55 283.303 28.55 284.236C29.5833 285.203 30.9 285.686 32.5 285.686C34.1 285.686 35.4167 285.203 36.45 284.236ZM19.3 246.825C19.3 244.058 20.25 241.841 22.15 240.175C24.0167 238.475 26.65 237.625 30.05 237.625H45V245.925H31.1C29.8333 245.925 28.8667 246.258 28.2 246.925C27.5 247.591 27.15 248.508 27.15 249.675C27.15 250.975 27.55 251.991 28.35 252.725C29.1167 253.425 30.2333 253.775 31.7 253.775H45L45 262.075H20V253.775H22.5C20.3667 252.275 19.3 249.958 19.3 246.825ZM16.55 225.62C17.4833 226.553 17.95 227.67 17.95 228.97C17.95 230.27 17.4833 231.403 16.55 232.37C15.5833 233.303 14.45 233.77 13.15 233.77C11.85 233.77 10.7333 233.303 9.8 232.37C8.86666 231.403 8.4 230.27 8.4 228.97C8.4 227.67 8.86666 226.553 9.8 225.62C10.7333 224.653 11.85 224.17 13.15 224.17C14.45 224.17 15.5833 224.653 16.55 225.62ZM45 224.82V233.12H20L20 224.82H45ZM35.55 195.432V212.682C37.5833 211.849 38.6 209.982 38.6 207.082C38.6 205.316 38.0167 203.799 36.85 202.532L41.05 196.532C44.15 198.966 45.7 202.549 45.7 207.282C45.7 211.516 44.4667 214.916 42 217.482C39.5 220.016 36.35 221.282 32.55 221.282C28.7833 221.282 25.6333 220.032 23.1 217.532C20.5667 215.032 19.3 211.849 19.3 207.982C19.3 204.249 20.55 201.166 23.05 198.732C25.5167 196.299 28.65 195.082 32.45 195.082C33.6167 195.082 34.65 195.199 35.55 195.432ZM29.8 212.782V203.182C27.4667 203.816 26.3 205.382 26.3 207.882C26.3 210.449 27.4667 212.082 29.8 212.782ZM45.75 169.24C45.75 174.94 43.4167 178.973 38.75 181.34L34.3 173.69C35.3 173.19 36.0167 172.607 36.45 171.94C36.85 171.24 37.05 170.34 37.05 169.24C37.05 166.673 35.8667 165.39 33.5 165.39H10V156.44H33.65C37.45 156.44 40.4167 157.607 42.55 159.94C44.6833 162.207 45.75 165.307 45.75 169.24ZM45.7 139.72C45.7 143.453 44.4333 146.603 41.9 149.17C39.3667 151.77 36.2333 153.07 32.5 153.07C28.8333 153.07 25.7167 151.77 23.15 149.17C20.5833 146.536 19.3 143.386 19.3 139.72C19.3 135.986 20.5833 132.836 23.15 130.27C25.7167 127.67 28.8333 126.37 32.5 126.37C36.2333 126.37 39.3667 127.67 41.9 130.27C44.4333 132.803 45.7 135.953 45.7 139.72ZM37.7 139.72C37.7 138.253 37.2167 137.053 36.25 136.12C35.2833 135.153 34.0333 134.67 32.5 134.67C30.9667 134.67 29.7167 135.153 28.75 136.12C27.7833 137.053 27.3 138.253 27.3 139.72C27.3 141.153 27.8 142.353 28.8 143.32C29.7667 144.253 31 144.72 32.5 144.72C34 144.72 35.25 144.253 36.25 143.32C37.2167 142.353 37.7 141.153 37.7 139.72ZM19.3 107.469C19.3 104.702 20.25 102.486 22.15 100.819C24.0167 99.1191 26.65 98.2691 30.05 98.2691H45V106.569H31.1C29.8333 106.569 28.8667 106.902 28.2 107.569C27.5 108.236 27.15 109.152 27.15 110.319C27.15 111.619 27.55 112.636 28.35 113.369C29.1167 114.069 30.2333 114.419 31.7 114.419H45V122.719H20V114.419H22.5C20.3667 112.919 19.3 110.602 19.3 107.469ZM27.3 85.8141C27.7333 85.8141 28.1 85.4641 28.4 84.7641C28.6667 84.0307 28.9667 82.9307 29.3 81.4641C29.5 80.4641 29.7667 79.5474 30.1 78.7141C30.4 77.8474 30.85 76.9974 31.45 76.1641C32.0167 75.2974 32.8167 74.6307 33.85 74.1641C34.85 73.6641 36 73.4141 37.3 73.4141C40.2 73.4141 42.3167 74.4807 43.65 76.6141C45.0167 78.7807 45.7 81.3141 45.7 84.2141C45.7 89.8141 43.7167 93.5474 39.75 95.4141L36.1 88.1641C37.9333 87.5307 38.85 86.2307 38.85 84.2641C38.85 82.7641 38.4 82.0141 37.5 82.0141C37.0667 82.0141 36.7167 82.3641 36.45 83.0641C36.15 83.7307 35.8167 84.8141 35.45 86.3141C35.25 87.3141 34.9833 88.2307 34.65 89.0641C34.2833 89.8641 33.8167 90.6974 33.25 91.5641C32.6833 92.3974 31.9333 93.0474 31 93.5141C30.0333 93.9807 28.9333 94.2141 27.7 94.2141C25.0333 94.2141 22.9667 93.2307 21.5 91.2641C20.0333 89.2974 19.3 86.9307 19.3 84.1641C19.3 79.2641 21.2333 75.8307 25.1 73.8641L28.25 80.8641C26.8167 81.5974 26.1 82.6307 26.1 83.9641C26.1 85.1974 26.5 85.8141 27.3 85.8141ZM45.7 58.1277C45.7 61.8611 44.4333 65.0111 41.9 67.5777C39.3667 70.1777 36.2333 71.4777 32.5 71.4777C28.8333 71.4777 25.7167 70.1777 23.15 67.5777C20.5833 64.9444 19.3 61.7944 19.3 58.1277C19.3 54.3944 20.5833 51.2444 23.15 48.6777C25.7167 46.0777 28.8333 44.7777 32.5 44.7777C36.2333 44.7777 39.3667 46.0777 41.9 48.6777C44.4333 51.2111 45.7 54.3611 45.7 58.1277ZM37.7 58.1277C37.7 56.6611 37.2167 55.4611 36.25 54.5277C35.2833 53.5611 34.0333 53.0777 32.5 53.0777C30.9667 53.0777 29.7167 53.5611 28.75 54.5277C27.7833 55.4611 27.3 56.6611 27.3 58.1277C27.3 59.5611 27.8 60.7611 28.8 61.7277C29.7667 62.6611 31 63.1277 32.5 63.1277C34 63.1277 35.25 62.6611 36.25 61.7277C37.2167 60.7611 37.7 59.5611 37.7 58.1277ZM19.3 25.8773C19.3 23.1107 20.25 20.894 22.15 19.2273C24.0167 17.5273 26.65 16.6773 30.05 16.6773H45L45 24.9773H31.1C29.8333 24.9773 28.8667 25.3107 28.2 25.9773C27.5 26.644 27.15 27.5607 27.15 28.7273C27.15 30.0273 27.55 31.044 28.35 31.7773C29.1167 32.4773 30.2333 32.8273 31.7 32.8273H45V41.1273H20V32.8273H22.5C20.3667 31.3273 19.3 29.0107 19.3 25.8773Z" />
    <path
        d="M45.7 7.32227C45.7 8.78893 45.2 10.0389 44.2 11.0723C43.1667 12.0723 41.9333 12.5723 40.5 12.5723C39.0667 12.5723 37.85 12.0556 36.85 11.0223C35.8167 9.98893 35.3 8.7556 35.3 7.32227C35.3 5.88893 35.8167 4.67227 36.85 3.67227C37.85 2.63893 39.0667 2.12226 40.5 2.12226C41.9333 2.12226 43.1667 2.63893 44.2 3.67227C45.2 4.67227 45.7 5.88893 45.7 7.32227Z"
        fill="#fff7" />
</svg>