<svg width="47" height="428" viewBox="0 0 47 428" fill="none" xmlns="http://www.w3.org/2000/svg">
<path d="M37.7504 413.681C37.7504 417.314 36.9837 420.364 35.4504 422.831C33.9171 425.264 31.7837 426.981 29.0504 427.981L24.6004 420.331C27.7004 419.031 29.2504 416.731 29.2504 413.431C29.2504 410.697 28.4671 409.331 26.9004 409.331C25.9004 409.331 25.0671 410.114 24.4004 411.681C24.2004 412.214 23.7504 413.681 23.0504 416.081C22.0837 419.481 20.7337 422.064 19.0004 423.831C17.2671 425.597 14.9671 426.481 12.1004 426.481C8.86706 426.481 6.25039 425.331 4.25039 423.031C2.25039 420.664 1.25039 417.764 1.25039 414.331C1.25039 411.397 1.95039 408.797 3.35039 406.531C4.71706 404.264 6.68373 402.531 9.25039 401.331L13.6504 408.831C11.0504 409.931 9.75039 411.747 9.75039 414.281C9.75039 415.314 9.96706 416.114 10.4004 416.681C10.8004 417.247 11.3504 417.531 12.0504 417.531C12.8171 417.531 13.4671 417.131 14.0004 416.331C14.5337 415.497 15.1504 413.897 15.8504 411.531C16.3837 409.764 16.8504 408.397 17.2504 407.431C17.7171 406.331 18.3504 405.197 19.1504 404.031C20.7504 401.597 23.3004 400.381 26.8004 400.381C30.2337 400.381 32.9171 401.597 34.8504 404.031C36.7837 406.464 37.7504 409.681 37.7504 413.681Z" fill="white"/>
<path d="M12.0004 382.465H19.9504V387.665H27.2004C28.2671 387.665 28.9504 387.298 29.2504 386.565C29.5171 385.798 29.6004 384.432 29.5004 382.465H37.0004C37.6004 387.398 37.1504 390.898 35.6504 392.965C34.0837 394.965 31.3337 395.965 27.4004 395.965H19.9504V399.715H12.0004V395.965H7.50039L5.00039 387.665H12.0004V382.465Z" fill="white"/>
<path d="M27.5504 354.419V371.669C29.5837 370.835 30.6004 368.969 30.6004 366.069C30.6004 364.302 30.0171 362.785 28.8504 361.519L33.0504 355.519C36.1504 357.952 37.7004 361.535 37.7004 366.269C37.7004 370.502 36.4671 373.902 34.0004 376.469C31.5004 379.002 28.3504 380.269 24.5504 380.269C20.7837 380.269 17.6337 379.019 15.1004 376.519C12.5671 374.019 11.3004 370.835 11.3004 366.969C11.3004 363.235 12.5504 360.152 15.0504 357.719C17.5171 355.285 20.6504 354.069 24.4504 354.069C25.6171 354.069 26.6504 354.185 27.5504 354.419ZM21.8004 371.769V362.169C19.4671 362.802 18.3004 364.369 18.3004 366.869C18.3004 369.435 19.4671 371.069 21.8004 371.769Z" fill="white"/>
<path d="M11.3004 335.104C11.3004 331.771 12.5671 328.987 15.1004 326.754C17.6337 324.487 20.7671 323.354 24.5004 323.354C28.2337 323.354 31.3837 324.487 33.9504 326.754C36.4504 329.021 37.7004 331.804 37.7004 335.104C37.7004 338.137 36.7004 340.504 34.7004 342.204H47.0004V350.504H12.0004V342.204H14.3004C12.3004 340.504 11.3004 338.137 11.3004 335.104ZM28.4504 340.754C29.4504 339.787 29.9504 338.521 29.9504 336.954C29.9504 335.387 29.4504 334.121 28.4504 333.154C27.4171 332.187 26.1004 331.704 24.5004 331.704C22.9004 331.704 21.5837 332.187 20.5504 333.154C19.5504 334.121 19.0504 335.387 19.0504 336.954C19.0504 338.521 19.5504 339.787 20.5504 340.754C21.5837 341.721 22.9004 342.204 24.5004 342.204C26.1004 342.204 27.4171 341.721 28.4504 340.754Z" fill="white"/>
<path d="M11.3004 304.492C11.3004 301.726 12.2504 299.509 14.1504 297.842C16.0171 296.142 18.6504 295.292 22.0504 295.292H37.0004V303.592H23.1004C21.8337 303.592 20.8671 303.926 20.2004 304.592C19.5004 305.259 19.1504 306.176 19.1504 307.342C19.1504 308.642 19.5504 309.659 20.3504 310.392C21.1171 311.092 22.2337 311.442 23.7004 311.442H37.0004V319.742H2.00039V311.442H14.5004C12.3671 309.942 11.3004 307.626 11.3004 304.492Z" fill="white"/>
<path d="M14.3004 273.186H12.0004V264.886H37.0004V273.186H34.7004C36.7004 274.886 37.7004 277.253 37.7004 280.286C37.7004 283.653 36.4504 286.453 33.9504 288.686C31.4171 290.919 28.2671 292.036 24.5004 292.036C20.7004 292.036 17.5671 290.919 15.1004 288.686C12.5671 286.453 11.3004 283.653 11.3004 280.286C11.3004 277.253 12.3004 274.886 14.3004 273.186ZM28.4504 282.236C29.4504 281.303 29.9504 280.036 29.9504 278.436C29.9504 276.836 29.4504 275.569 28.4504 274.636C27.4171 273.669 26.1004 273.186 24.5004 273.186C22.9004 273.186 21.5837 273.669 20.5504 274.636C19.5504 275.569 19.0504 276.836 19.0504 278.436C19.0504 280.036 19.5504 281.303 20.5504 282.236C21.5837 283.203 22.9004 283.686 24.5004 283.686C26.1004 283.686 27.4171 283.203 28.4504 282.236Z" fill="white"/>
<path d="M11.3004 244.824C11.3004 242.058 12.2504 239.841 14.1504 238.174C16.0171 236.474 18.6504 235.624 22.0504 235.624H37.0004V243.924H23.1004C21.8337 243.924 20.8671 244.258 20.2004 244.924C19.5004 245.591 19.1504 246.508 19.1504 247.674C19.1504 248.974 19.5504 249.991 20.3504 250.724C21.1171 251.424 22.2337 251.774 23.7004 251.774H37.0004V260.074H12.0004V251.774H14.5004C12.3671 250.274 11.3004 247.958 11.3004 244.824Z" fill="white"/>
<path d="M8.55039 223.619C9.48373 224.553 9.95039 225.669 9.95039 226.969C9.95039 228.269 9.48373 229.403 8.55039 230.369C7.58372 231.303 6.45039 231.769 5.15039 231.769C3.85039 231.769 2.73372 231.303 1.80039 230.369C0.867057 229.403 0.400391 228.269 0.400391 226.969C0.400391 225.669 0.867057 224.553 1.80039 223.619C2.73372 222.653 3.85039 222.169 5.15039 222.169C6.45039 222.169 7.58372 222.653 8.55039 223.619ZM37.0004 222.819V231.119H12.0004V222.819H37.0004Z" fill="white"/>
<path d="M27.5504 193.432V210.682C29.5837 209.849 30.6004 207.982 30.6004 205.082C30.6004 203.316 30.0171 201.799 28.8504 200.532L33.0504 194.532C36.1504 196.966 37.7004 200.549 37.7004 205.282C37.7004 209.516 36.4671 212.916 34.0004 215.482C31.5004 218.016 28.3504 219.282 24.5504 219.282C20.7837 219.282 17.6337 218.032 15.1004 215.532C12.5671 213.032 11.3004 209.849 11.3004 205.982C11.3004 202.249 12.5504 199.166 15.0504 196.732C17.5171 194.299 20.6504 193.082 24.4504 193.082C25.6171 193.082 26.6504 193.199 27.5504 193.432ZM21.8004 210.782V201.182C19.4671 201.816 18.3004 203.382 18.3004 205.882C18.3004 208.449 19.4671 210.082 21.8004 210.782Z" fill="white"/>
<path d="M37.7504 167.24C37.7504 172.94 35.4171 176.973 30.7504 179.34L26.3004 171.69C27.3004 171.19 28.0171 170.606 28.4504 169.94C28.8504 169.24 29.0504 168.34 29.0504 167.24C29.0504 164.673 27.8671 163.39 25.5004 163.39H2.00039V154.44H25.6504C29.4504 154.44 32.4171 155.606 34.5504 157.94C36.6837 160.206 37.7504 163.306 37.7504 167.24Z" fill="white"/>
<path d="M37.7004 137.719C37.7004 141.453 36.4337 144.603 33.9004 147.169C31.3671 149.769 28.2337 151.069 24.5004 151.069C20.8337 151.069 17.7171 149.769 15.1504 147.169C12.5837 144.536 11.3004 141.386 11.3004 137.719C11.3004 133.986 12.5837 130.836 15.1504 128.269C17.7171 125.669 20.8337 124.369 24.5004 124.369C28.2337 124.369 31.3671 125.669 33.9004 128.269C36.4337 130.803 37.7004 133.953 37.7004 137.719ZM29.7004 137.719C29.7004 136.253 29.2171 135.053 28.2504 134.119C27.2837 133.153 26.0337 132.669 24.5004 132.669C22.9671 132.669 21.7171 133.153 20.7504 134.119C19.7837 135.053 19.3004 136.253 19.3004 137.719C19.3004 139.153 19.8004 140.353 20.8004 141.319C21.7671 142.253 23.0004 142.719 24.5004 142.719C26.0004 142.719 27.2504 142.253 28.2504 141.319C29.2171 140.353 29.7004 139.153 29.7004 137.719Z" fill="white"/>
<path d="M11.3004 105.469C11.3004 102.702 12.2504 100.486 14.1504 98.8189C16.0171 97.1189 18.6504 96.2689 22.0504 96.2689H37.0004V104.569H23.1004C21.8337 104.569 20.8671 104.902 20.2004 105.569C19.5004 106.236 19.1504 107.152 19.1504 108.319C19.1504 109.619 19.5504 110.636 20.3504 111.369C21.1171 112.069 22.2337 112.419 23.7004 112.419H37.0004V120.719H12.0004V112.419H14.5004C12.3671 110.919 11.3004 108.602 11.3004 105.469Z" fill="white"/>
<path d="M19.3004 83.8139C19.7337 83.8139 20.1004 83.4639 20.4004 82.7639C20.6671 82.0305 20.9671 80.9305 21.3004 79.4639C21.5004 78.4639 21.7671 77.5472 22.1004 76.7139C22.4004 75.8472 22.8504 74.9972 23.4504 74.1639C24.0171 73.2972 24.8171 72.6305 25.8504 72.1639C26.8504 71.6639 28.0004 71.4139 29.3004 71.4139C32.2004 71.4139 34.3171 72.4805 35.6504 74.6139C37.0171 76.7805 37.7004 79.3139 37.7004 82.2139C37.7004 87.8139 35.7171 91.5472 31.7504 93.4139L28.1004 86.1639C29.9337 85.5305 30.8504 84.2305 30.8504 82.2639C30.8504 80.7639 30.4004 80.0139 29.5004 80.0139C29.0671 80.0139 28.7171 80.3639 28.4504 81.0639C28.1504 81.7305 27.8171 82.8139 27.4504 84.3139C27.2504 85.3139 26.9837 86.2305 26.6504 87.0639C26.2837 87.8639 25.8171 88.6972 25.2504 89.5639C24.6837 90.3972 23.9337 91.0472 23.0004 91.5139C22.0337 91.9805 20.9337 92.2139 19.7004 92.2139C17.0337 92.2139 14.9671 91.2305 13.5004 89.2639C12.0337 87.2972 11.3004 84.9305 11.3004 82.1639C11.3004 77.2639 13.2337 73.8305 17.1004 71.8639L20.2504 78.8639C18.8171 79.5972 18.1004 80.6305 18.1004 81.9639C18.1004 83.1972 18.5004 83.8139 19.3004 83.8139Z" fill="white"/>
<path d="M37.7004 56.1275C37.7004 59.8609 36.4337 63.0109 33.9004 65.5775C31.3671 68.1775 28.2337 69.4775 24.5004 69.4775C20.8337 69.4775 17.7171 68.1775 15.1504 65.5775C12.5837 62.9442 11.3004 59.7942 11.3004 56.1275C11.3004 52.3942 12.5837 49.2442 15.1504 46.6775C17.7171 44.0775 20.8337 42.7775 24.5004 42.7775C28.2337 42.7775 31.3671 44.0775 33.9004 46.6775C36.4337 49.2109 37.7004 52.3609 37.7004 56.1275ZM29.7004 56.1275C29.7004 54.6609 29.2171 53.4609 28.2504 52.5275C27.2837 51.5609 26.0337 51.0775 24.5004 51.0775C22.9671 51.0775 21.7171 51.5609 20.7504 52.5275C19.7837 53.4609 19.3004 54.6609 19.3004 56.1275C19.3004 57.5609 19.8004 58.7609 20.8004 59.7275C21.7671 60.6609 23.0004 61.1275 24.5004 61.1275C26.0004 61.1275 27.2504 60.6609 28.2504 59.7275C29.2171 58.7609 29.7004 57.5609 29.7004 56.1275Z" fill="white"/>
<path d="M11.3004 23.8771C11.3004 21.1105 12.2504 18.8938 14.1504 17.2271C16.0171 15.5271 18.6504 14.6771 22.0504 14.6771H37.0004V22.9771H23.1004C21.8337 22.9771 20.8671 23.3105 20.2004 23.9771C19.5004 24.6438 19.1504 25.5605 19.1504 26.7271C19.1504 28.0271 19.5504 29.0438 20.3504 29.7771C21.1171 30.4771 22.2337 30.8271 23.7004 30.8271H37.0004V39.1271H12.0004V30.8271H14.5004C12.3671 29.3271 11.3004 27.0105 11.3004 23.8771Z" fill="white"/>
<path d="M37.7004 5.32207C37.7004 6.78874 37.2004 8.03874 36.2004 9.07207C35.1671 10.0721 33.9337 10.5721 32.5004 10.5721C31.0671 10.5721 29.8504 10.0554 28.8504 9.02207C27.8171 7.98874 27.3004 6.7554 27.3004 5.32207C27.3004 3.88874 27.8171 2.67207 28.8504 1.67207C29.8504 0.638737 31.0671 0.12207 32.5004 0.12207C33.9337 0.12207 35.1671 0.638737 36.2004 1.67207C37.2004 2.67207 37.7004 3.88874 37.7004 5.32207Z" fill="white"/>
</svg>
