<svg width="32" height="39" fill="none" xmlns="http://www.w3.org/2000/svg">
    <path fill="currentColor" fill-rule="evenodd" clip-rule="evenodd"
        d="M3.8 6.8C9.26.65 15.55-2.71 20.28 2.78a4.9 4.9 0 0 1 3.28 1.38c1.94 1.87 2.24 5.37 1.35 8.15v2.42c.6.4.99 1.17 1.17 2.03.11.56.14 1.17.09 1.76-.06.6-.2 1.19-.44 1.66-.34.69-.85 1.16-1.55 1.27-.68.74-1.35 1.54-1.94 2.3-.66.84-1.22 1.64-1.6 2.3-.3.5-.2.83-.1 1.2l.15.6c1.2.26 2.27.47 3.24.66C30.1 29.68 32 30.04 32 38.24c0 .42-.33.76-.73.76H.74a.75.75 0 0 1-.74-.76c0-8.2 1.9-8.56 8.07-9.75.97-.18 2.06-.4 3.27-.66l.14-.46c.12-.37.25-.73-.11-1.34-.39-.65-.95-1.45-1.6-2.29-.6-.76-1.27-1.56-1.95-2.3-.7-.1-1.21-.59-1.55-1.27a4.81 4.81 0 0 1-.44-1.66c-.05-.59-.02-1.2.1-1.76.17-.86.55-1.61 1.15-2.02l-.8-.49c-.22-2.42.4-6.64-2.48-7.43Zm19.64 4.85a7.7 7.7 0 0 0-.75-2.54c-.47-.6-1.14-1.1-2.01-1.75l-.1-.07a8.84 8.84 0 0 0-.55-.4c-2.92 1.95-4.34 1.5-6.7 1.89-2.13.36-3.86 1.17-4.77 2.66v3.76c0 .36-.24.66-.57.74-.3.1-.51.55-.63 1.12-.08.42-.1.87-.06 1.31.04.42.13.81.28 1.12.14.28.32.46.52.47h.05c.21 0 .4.08.54.23.78.84 1.55 1.75 2.23 2.62a24.4 24.4 0 0 1 1.7 2.45c.72 1.22.49 1.91.25 2.6-.07.2-.14.41-.14.6 0 .38-.27.7-.63.75-1.42.33-2.66.56-3.76.77-5.04.97-6.73 1.3-6.86 7.51h29.04c-.13-6.22-1.82-6.54-6.86-7.51-1.1-.22-2.37-.46-3.81-.79a.75.75 0 0 1-.58-.74c0-.3-.07-.55-.14-.79-.2-.7-.38-1.34.25-2.4a24.4 24.4 0 0 1 1.7-2.45c.68-.87 1.45-1.78 2.23-2.62a.72.72 0 0 1 .58-.23c.2 0 .39-.2.52-.47.15-.3.25-.7.3-1.12.03-.44 0-.9-.07-1.31-.12-.58-.34-1.04-.65-1.12a.75.75 0 0 1-.55-.74v-3.55Z" />
</svg>