<svg height="40" viewbox="0 0 50 50" fill="none" xmlns="http://www.w3.org/2000/svg">
    <path fill="currentColor"
        d="M8.14 11.28c-.61 0-1.14-.52-1.14-1.16C7 9.52 7.53 9 8.14 9H11.25c1.05.03 1.99.23 2.78.72a4.31 4.31 0 0 1 1.87 2.63c0 .02 0 .05.03.08l.3 1.16h25.63c.64 0 1.14.51 1.14 1.12 0 .12-.03.23-.06.35L39.95 26.9c-.11.52-.58.86-1.11.86H20.09c.41 1.5.82 2.31 1.38 2.68.67.44 1.85.47 3.8.44h13.28c.64 0 1.14.52 1.14 1.12 0 .64-.53 1.13-1.14 1.13H25.3c-2.43.03-3.93-.03-5.13-.81-1.23-.8-1.87-2.2-2.52-4.7L13.74 13c0-.03 0-.03-.03-.06-.18-.63-.47-1.07-.88-1.3a3.02 3.02 0 0 0-1.61-.37H8.14Zm26.98 23.18a2.8 2.8 0 0 1 2.81 2.77A2.8 2.8 0 0 1 35.12 40a2.8 2.8 0 0 1-2.81-2.77 2.8 2.8 0 0 1 2.81-2.77Zm-12.33 0a2.8 2.8 0 0 1 2.81 2.77A2.8 2.8 0 0 1 22.8 40a2.8 2.8 0 0 1-2.81-2.77 2.8 2.8 0 0 1 2.8-2.77Zm-5.92-18.63 2.6 9.66h18.5l2.42-9.66H16.87Z" />
</svg>