<svg width="138" height="1650" fill="none" xmlns="http://www.w3.org/2000/svg">
    <path fill="#444546" stroke="#00000033" stroke-width="2" opacity="0.5"
        d="M10.6 56.08c0-11.84 2.5-21.66 7.52-29.44a39.71 39.71 0 0 1 20.32-16.32L52.68 34.8C42.76 38.96 37.8 46.32 37.8 56.88c0 8.74 2.5 13.12 7.52 13.12 3.3 0 5.97-2.5 8-7.52.85-2.14 2.3-6.83 4.32-14.08 2.99-10.24 7.15-18.35 12.48-24.32 5.44-5.98 12.96-8.96 22.56-8.96 10.35 0 18.72 3.68 25.12 11.04 6.4 7.46 9.6 16.74 9.6 27.84 0 9.38-2.19 17.7-6.56 24.96-4.37 7.25-10.72 12.8-19.04 16.64l-14.08-24c8.32-3.52 12.48-9.34 12.48-17.44 0-3.42-.7-6.03-2.08-7.84a6.51 6.51 0 0 0-5.28-2.56c-2.45 0-4.53 1.28-6.24 3.84-1.7 2.66-3.68 7.78-5.92 15.36-1.6 5.44-3.1 9.81-4.48 13.12a64.14 64.14 0 0 1-6.08 10.88 23.62 23.62 0 0 1-10.08 8.8c-4.05 1.92-8.85 2.88-14.4 2.88-10.99 0-19.57-3.9-25.76-11.68-6.19-7.79-9.28-18.08-9.28-30.88ZM125 183.5H97.32v-27.68H13v-28.64h84.32V99.5H125v84Zm-85.12 39.02v43.36H13v-72h112v71.2H98.28v-42.56H82.76v38.56h-26.4v-38.56H39.88ZM125 323.03c0 11.32-3.68 20.8-11.04 28.49-7.36 7.68-16.75 11.52-28.16 11.52S65 359.2 57.64 351.52c-7.36-7.68-11.04-17.17-11.04-28.48v-14.88H13v-28.64h112v43.52Zm-51.2 0c0 3.2 1.12 5.88 3.36 8 2.24 2.25 5.12 3.37 8.64 3.37 3.52 0 6.35-1.12 8.48-3.36a10.6 10.6 0 0 0 3.36-8v-14.88H73.8v14.88ZM125 434.38v28.48H13v-28.48h43.04v-31.52H13V374.2h112v28.64H83.56v31.52H125ZM13 548.93l16.16-4.8v-37.28L13 502.05v-31.04l112 36.96v34.88L13 579.81v-30.88Zm40.8-34.72v22.56l38.08-11.36-38.08-11.2Zm71.2 135.5v28.49H13v-22.08l56.32-39.52H13v-28.64h112v22.24l-56.32 39.52H125Zm0 46.21v28.65H13v-28.65h112Zm-85.12 74.9v43.35H13v-72h112v71.2H98.28v-42.55H82.76v38.55h-26.4v-38.55H39.88ZM10.6 897.97c0-18.35 7.47-31.25 22.4-38.72l14.24 24.48c-3.1 1.6-5.33 3.47-6.72 5.6-1.39 2.13-2.08 5.01-2.08 8.64 0 8.21 3.79 12.32 11.36 12.32H125v28.64H49.32c-12.05 0-21.55-3.73-28.48-11.2-6.83-7.36-10.24-17.28-10.24-29.76Zm16.8 153.49c-11.2-11.31-16.8-25.18-16.8-41.6 0-16.43 5.6-30.35 16.8-41.76 11.3-11.31 25.17-16.96 41.6-16.96s30.24 5.65 41.44 16.96c11.3 11.41 16.96 25.33 16.96 41.76 0 16.42-5.65 30.29-16.96 41.6-11.2 11.41-25.01 17.12-41.44 17.12-16.43 0-30.3-5.71-41.6-17.12Zm19.68-63.2c-5.65 5.76-8.48 12.96-8.48 21.6s2.83 15.84 8.48 21.6c5.76 5.76 13.07 8.64 21.92 8.64 8.85 0 16.1-2.88 21.76-8.64 5.76-5.76 8.64-12.96 8.64-21.6s-2.88-15.84-8.64-21.6c-5.65-5.76-12.9-8.64-21.76-8.64-8.85 0-16.16 2.88-21.92 8.64ZM125 1143.62v28.48H13v-22.08l56.32-39.52H13v-28.64h112v22.24l-56.32 39.52H125Zm-114.4 84.49c0-11.84 2.5-21.65 7.52-29.44a39.68 39.68 0 0 1 20.32-16.32l14.24 24.48c-9.92 4.16-14.88 11.52-14.88 22.08 0 8.75 2.5 13.12 7.52 13.12 3.3 0 5.97-2.51 8-7.52.85-2.13 2.3-6.83 4.32-14.08 2.99-10.24 7.15-18.35 12.48-24.32 5.44-5.97 12.96-8.96 22.56-8.96 10.35 0 18.72 3.68 25.12 11.04 6.4 7.47 9.6 16.75 9.6 27.84 0 9.39-2.19 17.71-6.56 24.96-4.37 7.25-10.72 12.8-19.04 16.64l-14.08-24c8.32-3.52 12.48-9.33 12.48-17.44 0-3.41-.7-6.03-2.08-7.84a6.5 6.5 0 0 0-5.28-2.56c-2.45 0-4.53 1.28-6.24 3.84-1.7 2.67-3.68 7.79-5.92 15.36-1.6 5.44-3.1 9.81-4.48 13.12a64.14 64.14 0 0 1-6.08 10.88 23.6 23.6 0 0 1-10.08 8.8c-4.05 1.92-8.85 2.88-14.4 2.88-10.99 0-19.57-3.89-25.76-11.68-6.19-7.79-9.28-18.08-9.28-30.88Zm16.8 148.97c-11.2-11.31-16.8-25.17-16.8-41.6s5.6-30.35 16.8-41.76c11.3-11.31 25.17-16.96 41.6-16.96s30.24 5.65 41.44 16.96c11.3 11.41 16.96 25.33 16.96 41.76s-5.65 30.29-16.96 41.6c-11.2 11.41-25.01 17.12-41.44 17.12-16.43 0-30.3-5.71-41.6-17.12Zm19.68-63.2c-5.65 5.76-8.48 12.96-8.48 21.6s2.83 15.84 8.48 21.6c5.76 5.76 13.07 8.64 21.92 8.64 8.85 0 16.1-2.88 21.76-8.64 5.76-5.76 8.64-12.96 8.64-21.6s-2.88-15.84-8.64-21.6c-5.65-5.76-12.9-8.64-21.76-8.64-8.85 0-16.16 2.88-21.92 8.64ZM125 1469.25v28.48H13v-22.08l56.32-39.52H13v-28.64h112v22.24l-56.32 39.52H125Z" />
</svg>