<svg height="40" viewbox="0 0 50 50" fill="none" xmlns="http://www.w3.org/2000/svg">
    <path fill="currentColor"
        d="M30.8 35.82c0-.5.42-.92.93-.92.52 0 .94.41.94.92v4.12a2.66 2.66 0 0 1-2.64 2.6H12.64c-.73 0-1.4-.29-1.87-.76a2.58 2.58 0 0 1-.78-1.84V9.6A2.66 2.66 0 0 1 12.65 7h17.37c.73-.01 1.39.28 1.87.76.48.47.78 1.12.78 1.84v4.12c0 .5-.42.91-.94.91a.93.93 0 0 1-.93-.91V9.6a.78.78 0 0 0-.78-.77H12.65a.78.78 0 0 0-.78.77v30.33a.78.78 0 0 0 .78.77h17.37a.78.78 0 0 0 .78-.77v-4.12Z" />
    <path fill="currentColor"
        d="M36.78 25.73H24.92a.92.92 0 1 1 0-1.84h11.86l-3.87-4.37a.91.91 0 0 1 .08-1.29.92.92 0 0 1 1.3.08l5.22 5.9c.32.35.3.87 0 1.21l-5.22 5.9a.92.92 0 0 1-1.3.07.91.91 0 0 1-.08-1.29l3.87-4.37Z" />
</svg>