<svg height="40" viewbox="0 0 50 50" fill="none" xmlns="http://www.w3.org/2000/svg">
    <path fill="currentColor"
        d="M32.75 36.14c0-.54.44-.97.98-.97.53 0 .97.43.97.97v4.3a2.7 2.7 0 0 1-.81 1.93c-.5.5-1.2.8-1.95.8H13.77c-.76 0-1.46-.3-1.96-.8a2.7 2.7 0 0 1-.81-1.93V8.73c0-.76.31-1.44.81-1.93.5-.5 1.2-.8 1.96-.8h18.17c.76 0 1.45.3 1.95.8s.81 1.18.81 1.93v4.3c0 .53-.44.96-.97.96a.97.97 0 0 1-.98-.96v-4.3a.82.82 0 0 0-.81-.8H13.77a.82.82 0 0 0-.82.8v31.71a.82.82 0 0 0 .81.8h18.18a.82.82 0 0 0 .81-.8v-4.3Z" />
    <path fill="currentColor"
        d="M25.63 23.7h12.4a.96.96 0 1 1 0 1.93h-12.4l4.05 4.57c.36.4.32 1-.08 1.35-.4.35-1 .31-1.36-.08l-5.46-6.17a.95.95 0 0 1 0-1.27l5.46-6.16a.96.96 0 0 1 1.36-.09c.4.35.44.96.08 1.36l-4.05 4.57Z" />
</svg>